<svg xmlns="http://www.w3.org/2000/svg" version="1.1" width="3300" height="2000"><g id="Notes"><style>
    text {
      font-family: monospace;
      text-anchor: middle;
    }
    text.emphasis {
      font-weight:bold;
    }
    text.lanchor {
      text-anchor: start;
    }
  </style><rect height="2200" id="artboard" fill="white" width="3300" x="0" y="0"/><line id="" style="fill:none;stroke:black;stroke-width:0.5;" x1="263" x2="3036" y1="292" y2="292"/><text class="lanchor emphasis" transform="matrix(1 0 0 1 263 322)">Weight/Scale Variations</text><text transform="matrix(1 0 0 1 559.711 322)">Ultralight</text><text transform="matrix(1 0 0 1 856.422 322)">Thin</text><text transform="matrix(1 0 0 1 1153.13 322)">Light</text><text transform="matrix(1 0 0 1 1449.84 322)">Regular</text><text transform="matrix(1 0 0 1 1746.56 322)">Medium</text><text transform="matrix(1 0 0 1 2043.27 322)">Semibold</text><text transform="matrix(1 0 0 1 2339.98 322)">Bold</text><text transform="matrix(1 0 0 1 2636.69 322)">Heavy</text><text transform="matrix(1 0 0 1 2933.4 322)">Black</text><text id="template-version" style="text-anchor: end;" transform="matrix(1 0 0 1 3036 1933)">Template v.1.0</text><text class="lanchor" transform="matrix(1 0 0 1 263 726)">Small</text><text class="lanchor" transform="matrix(1 0 0 1 263 1156)">Medium</text><text class="lanchor" transform="matrix(1 0 0 1 263 1586)">Large</text></g><g id="Guides"><g id="H-reference" style="fill:#27AAE1;stroke:none;" transform="matrix(1 0 0 1 339 696)"><path d="M 54.9316 0 L 57.666 0 L 30.5664 -70.459 L 28.0762 -70.459 L 0.976562 0 L 3.66211 0 L 12.9395 -24.4629 L 45.7031 -24.4629 Z M 29.1992 -67.0898 L 29.4434 -67.0898 L 44.8242 -26.709 L 13.8184 -26.709 Z"/></g><line id="Baseline-S" style="fill:none;stroke:#27AAE1;opacity:1;stroke-width:0.577;" x1="263" x2="3036" y1="696" y2="696"/><line id="Capline-S" style="fill:none;stroke:#27AAE1;opacity:1;stroke-width:0.577;" x1="263" x2="3036" y1="625.541" y2="625.541"/><g id="H-reference" style="fill:#27AAE1;stroke:none;" transform="matrix(1 0 0 1 339 1126)"><path d="M 54.9316 0 L 57.666 0 L 30.5664 -70.459 L 28.0762 -70.459 L 0.976562 0 L 3.66211 0 L 12.9395 -24.4629 L 45.7031 -24.4629 Z M 29.1992 -67.0898 L 29.4434 -67.0898 L 44.8242 -26.709 L 13.8184 -26.709 Z"/></g><line id="Baseline-M" style="fill:none;stroke:#27AAE1;opacity:1;stroke-width:0.577;" x1="263" x2="3036" y1="1126" y2="1126"/><line id="Capline-M" style="fill:none;stroke:#27AAE1;opacity:1;stroke-width:0.577;" x1="263" x2="3036" y1="1055.54" y2="1055.54"/><g id="H-reference" style="fill:#27AAE1;stroke:none;" transform="matrix(1 0 0 1 339 1556)"><path d="M 54.9316 0 L 57.666 0 L 30.5664 -70.459 L 28.0762 -70.459 L 0.976562 0 L 3.66211 0 L 12.9395 -24.4629 L 45.7031 -24.4629 Z M 29.1992 -67.0898 L 29.4434 -67.0898 L 44.8242 -26.709 L 13.8184 -26.709 Z"/></g><line id="Baseline-L" style="fill:none;stroke:#27AAE1;opacity:1;stroke-width:0.577;" x1="263" x2="3036" y1="1556" y2="1556"/><line id="Capline-L" style="fill:none;stroke:#27AAE1;opacity:1;stroke-width:0.577;" x1="263" x2="3036" y1="1485.54" y2="1485.54"/><rect height="119.336" id="left-margin" style="fill:darkred;stroke:none;opacity:0.4;" width="12.4512" x="1394.06" y="1030.79"/><rect height="119.336" id="right-margin" style="fill:darkgreen;stroke:none;opacity:0.4;" width="12.4512" x="1502.5112" y="1030.79"/><rect x="1406.5112" y="1045" width="96" height="96" fill="none" stroke="blue" stroke-dasharray="5"/><rect x="1394.06" y="1030.79" width="120.9024" height="119.336" fill="none" stroke="blue"/></g><g id="Symbols"><g id="Bold-L" transform="matrix(1 0 0 1 2266 1556)"><path d="M1880.175 3057.545 Q1789.875 3147.845 1662.4875 3147.845 Q1535.1000000000001 3147.845 1444.8 3057.545 L235.425 1848.17 Q187.05 1799.795 167.70000000000002 1744.9700000000003 Q148.35 1690.145 148.35 1628.87 V648.47 Q148.35 519.47 235.425 430.7825 Q322.5 342.095 451.5 342.095 H1431.9 Q1493.175 342.095 1551.2250000000001 363.0575 Q1609.275 384.02000000000004 1657.65 432.395 L2860.5750000000003 1632.0950000000003 Q2954.1 1725.62 2954.1 1854.62 Q2954.1 1983.62 2860.5750000000003 2077.145 L1880.175 3057.545 Z M790.125 1151.5700000000002 Q857.85 1151.5700000000002 907.8375 1101.5825 Q957.825 1051.5950000000003 957.825 983.87 Q957.825 916.1450000000001 907.8375 866.1575 Q857.85 816.1700000000001 790.125 816.1700000000001 Q722.4 816.1700000000001 672.4125 866.1575 Q622.4250000000001 916.1450000000001 622.4250000000001 983.87 Q622.4250000000001 1051.5950000000003 672.4125 1101.5825 Q722.4 1151.5700000000002 790.125 1151.5700000000002 Z"/></g><g id="Semibold-L" transform="matrix(1 0 0 1 1970.27 1556)"><path d="M1846.5253500000001 3023.8953500000002 Q1770.244425 3100.17305 1662.4875 3100.17305 Q1554.730575 3100.17305 1478.44965 3023.8953500000002 L269.07465 1814.5203500000002 Q227.7108 1773.1565 211.86637499999998 1726.7423 Q196.02195 1680.331325 196.02195 1628.87 V648.47 Q196.02195 539.1005749999999 269.07465 465.131975 Q342.130575 391.1666 451.5 391.1666 H1431.9 Q1483.361325 391.1666 1532.9973 407.92370000000005 Q1582.6365 424.6808 1624.00035 466.04465000000005 L2826.92535 1667.1475250000003 Q2906.42805 1746.6502249999999 2906.42805 1855.319825 Q2906.42805 1963.9894250000002 2826.92535 2043.4953500000001 L1846.5253500000001 3023.8953500000002 Z M790.125 1151.5700000000002 Q857.85 1151.5700000000002 907.8375 1101.5825 Q957.825 1051.5950000000003 957.825 983.87 Q957.825 916.1450000000001 907.8375 866.1575 Q857.85 816.1700000000001 790.125 816.1700000000001 Q722.4 816.1700000000001 672.4125 866.1575 Q622.4250000000001 916.1450000000001 622.4250000000001 983.87 Q622.4250000000001 1051.5950000000003 672.4125 1101.5825 Q722.4 1151.5700000000002 790.125 1151.5700000000002 Z"/></g><g id="Medium-L" transform="matrix(1 0 0 1 1674.31 1556)"><path d="M1821.2832750000002 2998.653275 Q1755.5222999999999 3064.4174749999997 1662.4875 3064.4174749999997 Q1569.4527 3064.4174749999997 1503.6917250000001 2998.653275 L294.316725 1789.2782750000001 Q258.209625 1753.1743999999999 244.993575 1713.0715250000003 Q231.777525 1672.9686499999998 231.777525 1628.87 V648.47 Q231.777525 553.8226999999999 294.316725 490.899725 Q356.8527 427.97675000000004 451.5 427.97675000000004 H1431.9 Q1475.99865 427.97675000000004 1519.326525 441.5798000000001 Q1562.6544 455.179625 1598.758275 491.28672500000005 L2801.6832750000003 1693.4409500000002 Q2870.672475 1762.4269250000002 2870.672475 1855.8455 Q2870.672475 1949.2673 2801.6832750000003 2018.253275 L1821.2832750000002 2998.653275 Z M790.125 1151.5700000000002 Q857.85 1151.5700000000002 907.8375 1101.5825 Q957.825 1051.5950000000003 957.825 983.87 Q957.825 916.1450000000001 907.8375 866.1575 Q857.85 816.1700000000001 790.125 816.1700000000001 Q722.4 816.1700000000001 672.4125 866.1575 Q622.4250000000001 916.1450000000001 622.4250000000001 983.87 Q622.4250000000001 1051.5950000000003 672.4125 1101.5825 Q722.4 1151.5700000000002 790.125 1151.5700000000002 Z"/></g><g id="Regular-L" transform="matrix(1 0 0 1 1378.56 1556)"><path d="M1802.775 2980.145 Q1744.7250000000001 3038.195 1662.4875 3038.195 Q1580.25 3038.195 1522.2 2980.145 L312.825 1770.77 Q280.575 1738.52 269.2875 1703.045 Q258.0 1667.5700000000002 258.0 1628.87 V648.47 Q258.0 564.62 312.825 509.7950000000001 Q367.65000000000003 454.97 451.5 454.97 H1431.9 Q1470.6000000000001 454.97 1509.3 466.25750000000005 Q1548.0 477.5450000000001 1580.25 509.7950000000001 L2783.175 1712.7200000000003 Q2844.4500000000003 1773.995 2844.4500000000003 1856.2325 Q2844.4500000000003 1938.4699999999998 2783.175 1999.745 L1802.775 2980.145 Z M790.125 1151.5700000000002 Q857.85 1151.5700000000002 907.8375 1101.5825 Q957.825 1051.5950000000003 957.825 983.87 Q957.825 916.1450000000001 907.8375 866.1575 Q857.85 816.1700000000001 790.125 816.1700000000001 Q722.4 816.1700000000001 672.4125 866.1575 Q622.4250000000001 916.1450000000001 622.4250000000001 983.87 Q622.4250000000001 1051.5950000000003 672.4125 1101.5825 Q722.4 1151.5700000000002 790.125 1151.5700000000002 Z"/></g><g id="Light-L" transform="matrix(1 0 0 1 1082.77 1556)"><path d="M1768.04175 2929.28675 Q1723.5270750000002 2973.6917750000002 1661.8134750000002 2973.6917750000002 Q1600.09665 2973.6917750000002 1555.691625 2929.28675 L366.16650000000004 1739.7584000000002 Q341.3598 1714.9517 331.92990000000003 1687.632725 Q322.50322500000004 1660.3105250000003 322.50322500000004 1630.111625 V665.836625 Q322.50322500000004 603.0749000000001 364.305675 561.275675 Q406.10490000000004 519.4732250000001 468.866625 519.4732250000001 H1433.141625 Q1461.9150750000001 519.4732250000001 1491.29805 528.4870999999999 Q1520.6778000000002 537.500975 1545.51675 560.6532500000001 L2729.8335 1744.9732250000002 Q2777.463525 1792.6032500000001 2778.08595 1855.6133 Q2778.7051500000002 1918.6233499999998 2732.31675 1965.0117500000001 L1768.04175 2929.28675 Z M803.62485 1140.4050500000003 Q861.57165 1140.4050500000003 903.49665 1098.005975 Q945.42165 1055.6069000000002 945.42165 997.6601000000002 Q945.42165 939.7133 903.641775 897.7883 Q861.8619000000001 855.8665250000001 803.9151 855.8665250000001 Q744.7299 855.8665250000001 702.8049000000001 897.6431749999999 Q660.8799 939.42305 660.8799 997.3698499999999 Q660.8799 1055.3166500000002 702.659775 1097.86085 Q744.436425 1140.4050500000003 803.62485 1140.4050500000003 Z"/></g><g id="Thin-L" transform="matrix(1 0 0 1 787.282 1556)"><path d="M1733.31495 2878.43495 Q1702.3356 2909.195 1661.1394500000001 2909.195 Q1619.9433 2909.195 1589.1800250000001 2878.43495 L419.498325 1708.7500250000003 Q402.13169999999997 1691.386625 394.56585 1672.2204500000003 Q387.0 1653.054275 387.0 1631.3500250000002 V683.2000250000001 Q387.0 641.52335 415.776675 612.746675 Q444.55335 583.97 486.230025 583.97 H1434.3800250000002 Q1453.233375 583.97 1473.299325 590.707025 Q1493.36205 597.447275 1510.78995 611.5050500000001 L2676.501675 1777.2200000000003 Q2710.48995 1811.20505 2711.72835 1854.990875 Q2712.969975 1898.7767 2681.46495 1930.2849500000002 L1733.31495 2878.43495 Z M817.121475 1129.243325 Q865.2933 1129.243325 899.1558 1094.432675 Q933.0183 1059.6220250000001 933.0183 1011.4502000000001 Q933.0183 963.278375 899.4460500000001 929.415875 Q865.8770249999999 895.5533750000001 817.7052 895.5533750000001 Q767.05335 895.5533750000001 733.1908500000001 929.125625 Q699.32835 962.69465 699.32835 1010.8664749999999 Q699.32835 1059.0383000000002 732.9006 1094.1392 Q766.469625 1129.243325 817.121475 1129.243325 Z"/></g><g id="Ultralight-L" transform="matrix(1 0 0 1 491.205 1556)"><path d="M1712.4750000000001 2847.92 Q1689.6162000000002 2870.495 1660.7331000000001 2870.495 Q1631.8500000000001 2870.495 1609.275 2847.92 L451.5 1690.145 Q438.6 1677.245 432.15000000000003 1662.9711499999999 Q425.7 1648.7005250000002 425.7 1632.0950000000003 V693.62 Q425.7 664.595 446.6625 643.6325 Q467.625 622.6700000000001 496.65000000000003 622.6700000000001 H1435.125 Q1448.025 622.6700000000001 1462.4988 628.046075 Q1476.9726 633.4189250000001 1489.95 642.02 L2644.5 1796.5700000000002 Q2670.3 1822.37 2671.9125 1854.62 Q2673.525 1886.87 2650.9500000000003 1909.4450000000002 L1712.4750000000001 2847.92 Z M825.21945 1122.545 Q867.525 1122.545 896.5500000000001 1092.28805 Q925.575 1062.0278750000002 925.575 1019.72555 Q925.575 977.42 896.93055 948.3950000000001 Q868.2828750000001 919.37 825.98055 919.37 Q780.45 919.37 751.4250000000001 948.01445 Q722.4 976.662125 722.4 1018.96445 Q722.4 1061.27 751.04445 1091.9075000000003 Q779.692125 1122.545 825.21945 1122.545 Z"/></g><g id="Bold-M" transform="matrix(1 0 0 1 2281.8 1126)"><path d="M3010.0 4824.77 Q2825.0 5009.77 2565.0 5009.77 Q2305.0 5009.77 2120.0 4824.77 L360.0 3064.77 Q270.0 2974.77 220.0 2859.77 Q170.0 2744.77 170.0 2614.77 V1184.77 Q170.0 924.77 355.0 739.77 Q540.0 554.77 800.0 554.77 H2230.0 Q2360.0 554.77 2475.0 604.77 Q2590.0 654.77 2680.0 744.77 L4440.0 2504.77 Q4625.0 2689.77 4625.0 2949.77 Q4625.0 3209.77 4440.0 3394.77 L3010.0 4824.77 Z M1300.0 1984.77 Q1425.0 1984.77 1512.5 1897.27 Q1600.0 1809.77 1600.0 1684.77 Q1600.0 1559.77 1512.5 1472.27 Q1425.0 1384.77 1300.0 1384.77 Q1175.0 1384.77 1087.5 1472.27 Q1000.0 1559.77 1000.0 1684.77 Q1000.0 1809.77 1087.5 1897.27 Q1175.0 1984.77 1300.0 1984.77 Z"/></g><g id="Semibold-M" transform="matrix(1 0 0 1 1985.97 1126)"><path d="M2940.4399999999996 4755.21 Q2785.87 4909.77 2565.0 4909.77 Q2344.13 4909.77 2189.56 4755.21 L429.56000000000006 2995.2099999999996 Q354.775 2920.4249999999997 312.385 2822.815 Q269.995 2725.205 269.995 2614.77 V1184.77 Q269.995 966.0699999999999 425.64500000000004 810.42 Q581.3000000000001 654.765 800.0 654.765 H2230.0 Q2340.435 654.765 2438.045 697.155 Q2535.6549999999997 739.5450000000001 2610.4399999999996 814.33 L4370.44 2576.5049999999997 Q4525.005 2731.07 4525.005 2950.855 Q4525.005 3170.64 4370.44 3325.2099999999996 L2940.4399999999996 4755.21 Z M1300.0 1984.77 Q1425.0 1984.77 1512.5 1897.27 Q1600.0 1809.77 1600.0 1684.77 Q1600.0 1559.77 1512.5 1472.27 Q1425.0 1384.77 1300.0 1384.77 Q1175.0 1384.77 1087.5 1472.27 Q1000.0 1559.77 1000.0 1684.77 Q1000.0 1809.77 1087.5 1897.27 Q1175.0 1984.77 1300.0 1984.77 Z"/></g><g id="Medium-M" transform="matrix(1 0 0 1 1689.91 1126)"><path d="M2888.26 4703.030000000001 Q2756.52 4834.77 2565.0 4834.77 Q2373.48 4834.77 2241.7400000000002 4703.030000000001 L481.74 2943.03 Q418.37 2879.66 381.685 2795.0950000000003 Q345.0 2710.53 345.0 2614.77 V1184.77 Q345.0 997.05 478.64 863.4100000000001 Q612.28 729.77 800.0 729.77 H2230.0 Q2325.7599999999998 729.77 2410.325 766.4549999999999 Q2494.89 803.14 2558.2599999999998 866.51 L4318.26 2630.315 Q4450.0 2762.05 4450.0 2951.67 Q4450.0 3141.29 4318.26 3273.03 L2888.26 4703.030000000001 Z M1300.0 1984.77 Q1425.0 1984.77 1512.5 1897.27 Q1600.0 1809.77 1600.0 1684.77 Q1600.0 1559.77 1512.5 1472.27 Q1425.0 1384.77 1300.0 1384.77 Q1175.0 1384.77 1087.5 1472.27 Q1000.0 1559.77 1000.0 1684.77 Q1000.0 1809.77 1087.5 1897.27 Q1175.0 1984.77 1300.0 1984.77 Z"/></g><g id="Regular-M" transform="matrix(1 0 0 1 1394.06 1126)"><path d="M2850.0 4664.77 Q2735.0 4779.77 2565.0 4779.77 Q2395.0 4779.77 2280.0 4664.77 L520.0 2904.77 Q465.0 2849.77 432.5 2774.77 Q400.0 2699.77 400.0 2614.77 V1184.77 Q400.0 1019.77 517.5 902.27 Q635.0 784.77 800.0 784.77 H2230.0 Q2315.0 784.77 2390.0 817.27 Q2465.0 849.77 2520.0 904.77 L4280.0 2669.77 Q4395.0 2784.77 4395.0 2952.27 Q4395.0 3119.77 4280.0 3234.77 L2850.0 4664.77 Z M1300.0 1984.77 Q1425.0 1984.77 1512.5 1897.27 Q1600.0 1809.77 1600.0 1684.77 Q1600.0 1559.77 1512.5 1472.27 Q1425.0 1384.77 1300.0 1384.77 Q1175.0 1384.77 1087.5 1472.27 Q1000.0 1559.77 1000.0 1684.77 Q1000.0 1809.77 1087.5 1897.27 Q1175.0 1984.77 1300.0 1984.77 Z"/></g><g id="Light-M" transform="matrix(1 0 0 1 1098.18 1126)"><path d="M2780.7650000000003 4595.535000000001 Q2694.445 4681.685 2566.84 4681.685 Q2439.2349999999997 4681.685 2353.08 4595.535000000001 L593.08 2835.5350000000003 Q549.62 2792.0750000000003 524.8149999999999 2735.485 Q500.005 2678.9 500.005 2614.77 V1184.77 Q500.005 1062.08 588.66 973.4300000000001 Q677.31 884.775 800.0 884.775 H2230.0 Q2291.92 884.775 2348.625 908.945 Q2405.335 933.1100000000001 2446.92 974.0050000000001 L4206.92 2737.0849999999996 Q4294.995 2825.16 4295.955 2952.27 Q4296.915 3079.38 4210.765 3165.5350000000003 L2780.7650000000003 4595.535000000001 Z M1299.7749999999999 1934.765 Q1403.845 1934.765 1476.92 1861.915 Q1549.9950000000001 1789.0649999999998 1549.9950000000001 1684.9950000000001 Q1549.9950000000001 1580.925 1477.145 1507.85 Q1404.2949999999998 1434.7749999999999 1300.2250000000001 1434.7749999999999 Q1196.155 1434.7749999999999 1123.0800000000002 1507.625 Q1050.005 1580.4750000000001 1050.005 1684.5449999999998 Q1050.005 1788.615 1122.855 1861.69 Q1195.705 1934.765 1299.7749999999999 1934.765 Z"/></g><g id="Thin-M" transform="matrix(1 0 0 1 802.565 1126)"><path d="M2711.54 4526.31 Q2653.895 4583.615000000001 2568.675 4583.615000000001 Q2483.46 4583.615000000001 2426.1549999999997 4526.31 L666.155 2766.31 Q634.23 2734.3849999999998 617.115 2696.21 Q600.0 2658.0350000000003 600.0 2614.77 V1184.77 Q600.0 1104.385 659.8050000000001 1044.575 Q719.615 984.77 800.0 984.77 H2230.0 Q2268.8450000000003 984.77 2307.26 1000.5999999999999 Q2345.675 1016.435 2373.8450000000003 1043.23 L4133.845 2804.3849999999998 Q4195.0 2865.54 4196.925 2952.27 Q4198.845 3039.0 4141.54 3096.31 L2711.54 4526.31 Z M1299.5500000000002 1884.77 Q1382.695 1884.77 1441.345 1826.5700000000002 Q1500.0 1768.365 1500.0 1685.225 Q1500.0 1602.075 1441.8000000000002 1543.425 Q1383.6000000000001 1484.77 1300.4499999999998 1484.77 Q1217.305 1484.77 1158.655 1542.9699999999998 Q1100.0 1601.175 1100.0 1684.315 Q1100.0 1767.465 1158.1999999999998 1826.115 Q1216.4 1884.77 1299.5500000000002 1884.77 Z"/></g><g id="Ultralight-M" transform="matrix(1 0 0 1 506.415 1126)"><path d="M2670.0 4484.77 Q2629.5600000000004 4524.77 2569.78 4524.77 Q2510.0 4524.77 2470.0 4484.77 L710.0 2724.77 Q685.0 2699.77 672.5 2672.64 Q660.0 2645.515 660.0 2614.77 V1184.77 Q660.0 1129.77 702.5 1087.27 Q745.0 1044.77 800.0 1044.77 H2230.0 Q2255.0 1044.77 2282.44 1055.605 Q2309.88 1066.435 2330.0 1084.77 L4090.0 2844.77 Q4135.0 2889.77 4137.5 2952.27 Q4140.0 3014.77 4100.0 3054.77 L2670.0 4484.77 Z M1299.41 1854.77 Q1370.0 1854.77 1420.0 1805.36 Q1470.0 1755.9450000000002 1470.0 1685.36 Q1470.0 1614.77 1420.59 1564.77 Q1371.1750000000002 1514.77 1300.59 1514.77 Q1230.0 1514.77 1180.0 1564.18 Q1130.0 1613.5949999999998 1130.0 1684.18 Q1130.0 1754.77 1179.41 1804.77 Q1228.8249999999998 1854.77 1299.41 1854.77 Z"/></g><g id="Bold-S" transform="matrix(1 0 0 1 2294.23 696)"><path d="M2811.996 4514.144 Q2646.306 4679.834 2419.074 4679.834 Q2191.842 4679.834 2026.152 4514.144 L402.39 2890.3819999999996 Q323.68725 2810.249582 280.195992 2708.298158 Q236.7 2606.3419999999996 236.7 2497.46 V1167.2060000000001 Q236.7 936.6602 400.73310000000004 772.6270999999999 Q564.7662 608.594 795.312 608.594 H2125.566 Q2236.663512 608.594 2334.969756 648.8330000000001 Q2433.276 689.0720000000001 2517.1956179999997 772.8543320000001 L4142.25 2393.312 Q4307.94 2559.002 4307.94 2786.234 Q4307.94 3013.466 4142.25 3179.156 L2811.996 4514.144 Z M1249.776 1905.71 Q1368.126 1905.71 1450.971 1822.865 Q1533.816 1740.02 1533.816 1621.67 Q1533.816 1503.3200000000002 1450.971 1420.4750000000001 Q1368.126 1337.63 1249.776 1337.63 Q1131.426 1337.63 1048.581 1420.4750000000001 Q965.736 1503.3200000000002 965.736 1621.67 Q965.736 1740.02 1048.581 1822.865 Q1131.426 1905.71 1249.776 1905.71 Z"/></g><g id="Semibold-S" transform="matrix(1 0 0 1 1998.1 696)"><path d="M2746.136592 4448.284592 Q2609.257716 4585.158734000001 2419.074 4585.158734000001 Q2228.890284 4585.158734000001 2092.011408 4448.284592 L468.249408 2824.522592 Q403.95222 2758.7957359999996 367.66611 2673.309164 Q331.37526599999995 2587.817858 331.37526599999995 2497.46 V1167.2060000000001 Q331.37526599999995 975.76304 467.619786 839.513786 Q603.86904 703.269266 795.312 703.269266 H2125.566 Q2218.13937 703.269266 2299.980762 736.303118 Q2381.822154 769.3369700000001 2451.3362100000004 838.7137400000001 L4076.3905919999997 2461.230698 Q4213.264734 2598.10484 4213.264734 2787.261278 Q4213.264734 2976.417716 4076.3905919999997 3113.2965919999997 L2746.136592 4448.284592 Z M1249.776 1905.71 Q1368.126 1905.71 1450.971 1822.865 Q1533.816 1740.02 1533.816 1621.67 Q1533.816 1503.3200000000002 1450.971 1420.4750000000001 Q1368.126 1337.63 1249.776 1337.63 Q1131.426 1337.63 1048.581 1420.4750000000001 Q965.736 1503.3200000000002 965.736 1621.67 Q965.736 1740.02 1048.581 1822.865 Q1131.426 1905.71 1249.776 1905.71 Z"/></g><g id="Medium-S" transform="matrix(1 0 0 1 1701.85 696)"><path d="M2696.7325680000004 4398.8805680000005 Q2581.4691359999997 4514.144 2419.074 4514.144 Q2256.678864 4514.144 2141.4154320000002 4398.8805680000005 L517.653432 2775.118568 Q464.163966 2720.2041679999998 433.274616 2647.0638679999997 Q402.39 2573.923568 402.39 2497.46 V1167.2060000000001 Q402.39 1005.094904 517.795452 889.6894519999998 Q633.200904 774.2840000000001 795.312 774.2840000000001 H2125.566 Q2204.24508 774.2840000000001 2273.735466 801.916358 Q2343.225852 829.548716 2401.93692 888.11303 L4026.9865680000003 2512.178006 Q4142.25 2627.4367039999997 4142.25 2788.0329199999996 Q4142.25 2948.6291359999996 4026.9865680000003 3063.892568 L2696.7325680000004 4398.8805680000005 Z M1249.776 1905.71 Q1368.126 1905.71 1450.971 1822.865 Q1533.816 1740.02 1533.816 1621.67 Q1533.816 1503.3200000000002 1450.971 1420.4750000000001 Q1368.126 1337.63 1249.776 1337.63 Q1131.426 1337.63 1048.581 1420.4750000000001 Q965.736 1503.3200000000002 965.736 1621.67 Q965.736 1740.02 1048.581 1822.865 Q1131.426 1905.71 1249.776 1905.71 Z"/></g><g id="Regular-S" transform="matrix(1 0 0 1 1405.73 696)"><path d="M2660.508 4362.656 Q2561.094 4462.070000000001 2419.074 4462.070000000001 Q2277.054 4462.070000000001 2177.64 4362.656 L553.878 2738.894 Q508.31325 2691.8995819999996 481.390992 2627.820158 Q454.464 2563.736 454.464 2497.46 V1167.2060000000001 Q454.464 1026.6062000000002 554.5881 926.4821 Q654.7122 826.358 795.312 826.358 H2125.566 Q2194.057512 826.358 2254.491756 850.028 Q2314.926 873.6980000000001 2365.707618 924.3423319999999 L3990.762 2549.5339999999997 Q4090.176 2648.948 4090.176 2788.6009999999997 Q4090.176 2928.254 3990.762 3027.6679999999997 L2660.508 4362.656 Z M1249.776 1905.71 Q1368.126 1905.71 1450.971 1822.865 Q1533.816 1740.02 1533.816 1621.67 Q1533.816 1503.3200000000002 1450.971 1420.4750000000001 Q1368.126 1337.63 1249.776 1337.63 Q1131.426 1337.63 1048.581 1420.4750000000001 Q965.736 1503.3200000000002 965.736 1621.67 Q965.736 1740.02 1048.581 1822.865 Q1131.426 1905.71 1249.776 1905.71 Z"/></g><g id="Light-S" transform="matrix(1 0 0 1 1109.75 696)"><path d="M2594.956302 4297.104302000001 Q2522.696526 4369.203122000001 2420.816112 4369.203122000001 Q2318.935698 4369.203122000001 2246.832144 4297.104302000001 L623.070144 2673.342302 Q588.431466 2637.273956 568.7901 2590.6251199999997 Q549.148734 2543.976284 549.148734 2497.46 V1167.2060000000001 Q549.148734 1066.665308 621.962388 993.8563880000002 Q694.771308 921.0427340000001 795.312 921.0427340000001 H2125.566 Q2172.205368 921.0427340000001 2215.32264 936.8258900000001 Q2258.435178 952.6043120000002 2296.515474 989.8940299999999 L3921.569856 2613.2678419999997 Q3995.491266 2687.1892519999997 3996.4001940000003 2788.6009999999997 Q3997.309122 2890.012748 3925.210302 2962.116302 L2594.956302 4297.104302000001 Z M1249.56297 1858.3652660000002 Q1348.096446 1858.3652660000002 1417.283856 1789.390886 Q1486.471266 1720.416506 1486.471266 1621.8830300000002 Q1486.471266 1523.3495540000001 1417.496886 1454.162144 Q1348.5225059999998 1384.974734 1249.9890300000002 1384.974734 Q1151.455554 1384.974734 1082.2681440000001 1453.9491140000002 Q1013.080734 1522.9234940000001 1013.080734 1621.45697 Q1013.080734 1719.990446 1082.055114 1789.177856 Q1151.0294939999999 1858.3652660000002 1249.56297 1858.3652660000002 Z"/></g><g id="Thin-S" transform="matrix(1 0 0 1 814.015 696)"><path d="M2529.414072 4231.562072000001 Q2484.303786 4276.350446 2422.5534900000002 4276.350446 Q2360.807928 4276.350446 2316.019554 4231.562072000001 L692.257554 2607.800072 Q668.540214 2582.6530639999996 656.17974 2553.43955 Q643.824 2524.221302 643.824 2497.46 V1167.2060000000001 Q643.824 1106.7196820000001 689.3224739999999 1061.216474 Q734.825682 1015.7180000000001 795.312 1015.7180000000001 H2125.566 Q2150.357958 1015.7180000000001 2176.153524 1023.604844 Q2201.94909 1031.4964220000002 2227.332798 1055.43626 L3852.382446 2676.987482 Q3900.816 2725.4210359999997 3902.63859 2788.6009999999997 Q3904.456446 2851.780964 3859.668072 2896.574072 L2529.414072 4231.562072000001 Z M1249.34994 1811.03 Q1328.071626 1811.03 1383.6014460000001 1755.9262400000002 Q1439.136 1700.817746 1439.136 1622.1007940000002 Q1439.136 1543.3743740000002 1384.03224 1487.844554 Q1328.92848 1432.3100000000002 1250.2020599999998 1432.3100000000002 Q1171.480374 1432.3100000000002 1115.950554 1487.41376 Q1060.416 1542.522254 1060.416 1621.239206 Q1060.416 1699.965626 1115.51976 1755.4954460000001 Q1170.62352 1811.03 1249.34994 1811.03 Z"/></g><g id="Ultralight-S" transform="matrix(1 0 0 1 517.792 696)"><path d="M2490.084 4192.232 Q2461.2634080000003 4220.636 2423.599704 4220.636 Q2385.936 4220.636 2357.532 4192.232 L733.77 2568.47 Q716.60925 2549.8795819999996 708.622992 2531.123474 Q700.632 2512.367366 700.632 2497.46 V1167.2060000000001 Q700.632 1130.7542 729.7461000000001 1101.6401 Q758.8602000000001 1072.526 795.312 1072.526 H2125.566 Q2137.249512 1072.526 2152.6539479999997 1075.6835780000001 Q2168.058384 1078.836422 2185.815618 1094.7663320000001 L3810.87 2715.2239999999997 Q3844.008 2748.3619999999996 3846.375 2788.6009999999997 Q3848.742 2828.8399999999997 3820.338 2857.2439999999997 L2490.084 4192.232 Z M1249.217388 1782.626 Q1316.052 1782.626 1363.392 1735.844612 Q1410.732 1689.0584900000001 1410.732 1622.228612 Q1410.732 1555.394 1363.9506119999999 1508.054 Q1317.1644900000001 1460.7140000000002 1250.3346119999999 1460.7140000000002 Q1183.5 1460.7140000000002 1136.16 1507.495388 Q1088.82 1554.28151 1088.82 1621.111388 Q1088.82 1687.9460000000001 1135.601388 1735.286 Q1182.38751 1782.626 1249.217388 1782.626 Z"/></g></g></svg>